<?xml version="1.0" encoding="utf-8"?>
<!-- Generator: Adobe Illustrator 25.2.2, SVG Export Plug-In . SVG Version: 6.00 Build 0)  -->
<!DOCTYPE svg PUBLIC "-//W3C//DTD SVG 1.1//EN" "http://www.w3.org/Graphics/SVG/1.1/DTD/svg11.dtd" [
	<!ENTITY ns_extend "http://ns.adobe.com/Extensibility/1.0/">
	<!ENTITY ns_ai "http://ns.adobe.com/AdobeIllustrator/10.0/">
	<!ENTITY ns_graphs "http://ns.adobe.com/Graphs/1.0/">
	<!ENTITY ns_vars "http://ns.adobe.com/Variables/1.0/">
	<!ENTITY ns_imrep "http://ns.adobe.com/ImageReplacement/1.0/">
	<!ENTITY ns_sfw "http://ns.adobe.com/SaveForWeb/1.0/">
	<!ENTITY ns_custom "http://ns.adobe.com/GenericCustomNamespace/1.0/">
	<!ENTITY ns_adobe_xpath "http://ns.adobe.com/XPath/1.0/">
]>
<svg version="1.1" id="Livello_1" xmlns:x="&ns_extend;" xmlns:i="&ns_ai;" xmlns:graph="&ns_graphs;"
	 xmlns="http://www.w3.org/2000/svg" xmlns:xlink="http://www.w3.org/1999/xlink" x="0px" y="0px" viewBox="0 0 48 48"
	 style="enable-background:new 0 0 48 48;" xml:space="preserve">
<style type="text/css">
	.st0{fill-rule:evenodd;clip-rule:evenodd;fill:#0E3B50;}
</style>
<metadata>
	<sfw  xmlns="&ns_sfw;">
		<slices></slices>
		<sliceSourceBounds  bottomLeftOrigin="true" height="48" width="48" x="0" y="0"></sliceSourceBounds>
	</sfw>
</metadata>
<path class="st0" d="M24,0C10.7,0,0,10.7,0,24s10.7,24,24,24s24-10.7,24-24S37.3,0,24,0z M10,24c0-7.7,6.3-14,14-14s14,6.3,14,14
	c0,1.1-0.1,2-0.3,2.9l0,0c0,0-0.1,0.4-0.2,0.6c-0.3,1.1-1,2-1.8,2.7c-0.8,0.6-1.8,1-2.8,1c-0.1,0-0.3,0-0.4,0
	c-1.4-0.1-2.7-0.9-3.5-2.1c-1.3,1.3-3.1,2.1-5,2.1c-3.9,0-7.1-3.2-7.1-7.1s3.2-7.1,7.1-7.1s7.1,3.2,7.1,7.1v2.3
	c0,1.3,0.9,1.9,1.7,1.9c0.8,0.1,1.8-0.4,2.1-1.8c0.2-0.8,0.3-1.6,0.3-2.4c0-6.1-5-11.1-11.1-11.1s-11.1,5-11.1,11.1
	c0,6.1,5,11.1,11.1,11.1c2.1,0,4.2-0.6,6-1.8l0,0l1.9,2.2l0,0c-2.3,1.6-5.1,2.4-7.9,2.4C16.3,37.9,10,31.7,10,24z"/>
<path class="st0" d="M28.2,24c0,2.3-1.9,4.2-4.2,4.2c-2.3,0-4.2-1.9-4.2-4.2c0-2.3,1.9-4.2,4.2-4.2C26.3,19.8,28.2,21.6,28.2,24z"/>
</svg>
