<?xml version="1.0" encoding="utf-8"?>
<!-- Generator: Adobe Illustrator 25.3.1, SVG Export Plug-In . SVG Version: 6.00 Build 0)  -->
<!DOCTYPE svg PUBLIC "-//W3C//DTD SVG 1.1//EN" "http://www.w3.org/Graphics/SVG/1.1/DTD/svg11.dtd" [
	<!ENTITY ns_extend "http://ns.adobe.com/Extensibility/1.0/">
	<!ENTITY ns_ai "http://ns.adobe.com/AdobeIllustrator/10.0/">
	<!ENTITY ns_graphs "http://ns.adobe.com/Graphs/1.0/">
	<!ENTITY ns_vars "http://ns.adobe.com/Variables/1.0/">
	<!ENTITY ns_imrep "http://ns.adobe.com/ImageReplacement/1.0/">
	<!ENTITY ns_sfw "http://ns.adobe.com/SaveForWeb/1.0/">
	<!ENTITY ns_custom "http://ns.adobe.com/GenericCustomNamespace/1.0/">
	<!ENTITY ns_adobe_xpath "http://ns.adobe.com/XPath/1.0/">
]>
<svg version="1.1" id="Livello_4" xmlns:x="&ns_extend;" xmlns:i="&ns_ai;" xmlns:graph="&ns_graphs;"
	 xmlns="http://www.w3.org/2000/svg" xmlns:xlink="http://www.w3.org/1999/xlink" x="0px" y="0px" viewBox="0 0 201 109.4"
	 style="enable-background:new 0 0 201 109.4;" xml:space="preserve">
<style type="text/css">
	.st0{fill:#0E3B50;}
</style>
<metadata>
	<sfw  xmlns="&ns_sfw;">
		<slices></slices>
		<sliceSourceBounds  bottomLeftOrigin="true" height="108.9" width="200.8" x="188.8" y="264.4"></sliceSourceBounds>
	</sfw>
</metadata>
<path class="st0" d="M200.8,81.6c0-5.5-4.4-9.9-9.9-9.9s-9.9,4.4-9.9,9.9c0,0,3,15.3-19.8,0.1v-0.1l-41.1-27.4l-0.6-0.4
	c-0.5-0.4-0.8-1.1-0.8-1.8s0.3-1.3,0.8-1.8l0.6-0.4l19.7-13.1l0,0c4.5-3,5.8-9.2,2.7-13.7c-3-4.6-9.2-5.8-13.7-2.7l0,0L103,37.5
	h-0.1l-0.3,0.2l0,0c-0.3,0.2-0.7,0.3-1.1,0.3c-1.3,0-2.4-1.1-2.4-2.4V20.2V2.9c0-1.3-1.1-2.4-2.4-2.4h-57c-5.5,0-9.9,4.4-9.9,9.9
	s4.4,9.9,9.9,9.9h37.2c1.3,0,2.4,1.1,2.4,2.4l0,0v8.1v21.3c0,0.7-0.3,1.4-0.8,1.8L78,54.2L39.7,79.7v0.1
	C16.9,95,19.9,79.7,19.9,79.7c0-5.5-4.4-9.9-9.9-9.9s-9.9,4.4-9.9,9.9l0,0C0,81.2-0.3,93.5,9.4,101.4c8.2,6.8,20.3,7.6,30.2,2.1
	l5.6-3.8l29.9-19.9l0,0l0.8-0.5c0.3-0.1,0.6-0.2,0.9-0.2c1.3,0,2.4,1.1,2.4,2.4l0,0v0.1v17.9c0,5.5,4.4,9.9,9.9,9.9S99,105,99,99.5
	V68.4c0-1.3,1.1-2.4,2.4-2.4c0.3,0,0.6,0.1,0.9,0.2l0.8,0.5l0,0l52.4,34.9l5.6,3.8l0,0c10,5.6,22,4.7,30.2-2.1
	C201.2,95.3,200.9,83,200.8,81.6L200.8,81.6z"/>
</svg>
